<?xml version="1.0" encoding="UTF-8" standalone="no"?>
<svg
   width="450"
   height="100"
   version="1.1"
   id="svg6"
   sodipodi:docname="image.svg"
   inkscape:version="1.3.2 (1:1.3.2+202311252150+091e20ef0f)"
   viewBox="0 0 450 100"
   xml:space="preserve"
   xmlns:inkscape="http://www.inkscape.org/namespaces/inkscape"
   xmlns:sodipodi="http://sodipodi.sourceforge.net/DTD/sodipodi-0.dtd"
   xmlns="http://www.w3.org/2000/svg"
   xmlns:svg="http://www.w3.org/2000/svg"><defs
     id="defs6" /><sodipodi:namedview
     id="namedview6"
     pagecolor="#ffffff"
     bordercolor="#111111"
     borderopacity="1"
     inkscape:showpageshadow="0"
     inkscape:pageopacity="0"
     inkscape:pagecheckerboard="1"
     inkscape:deskcolor="#d1d1d1"
     showgrid="true"
     inkscape:zoom="1.5839844"
     inkscape:cx="231.6942"
     inkscape:cy="62.816276"
     inkscape:window-width="1920"
     inkscape:window-height="1011"
     inkscape:window-x="1920"
     inkscape:window-y="32"
     inkscape:window-maximized="1"
     inkscape:current-layer="svg6"><inkscape:grid
       id="grid2"
       units="px"
       originx="0"
       originy="0"
       spacingx="1"
       spacingy="1"
       empcolor="#0099e5"
       empopacity="0.30196078"
       color="#0099e5"
       opacity="0.14901961"
       empspacing="0"
       dotted="false"
       gridanglex="30"
       gridanglez="30"
       visible="true" /></sodipodi:namedview><text
     xml:space="preserve"
     style="font-style:normal;font-variant:normal;font-weight:bold;font-stretch:normal;font-size:85.3333px;font-family:Ubuntu;-inkscape-font-specification:'Ubuntu Bold';opacity:1;fill:#99c1f1;stroke-width:0.4;stroke-linecap:round;stroke-linejoin:round;paint-order:stroke fill markers;fill-opacity:1"
     x="96"
     y="80"
     id="text1"><tspan
       sodipodi:role="line"
       id="tspan1"
       x="96"
       y="80">README</tspan></text><g
     id="g1"
     transform="matrix(6.7241382,0,0,6.7241382,-4.0517272,-4.0517272)"><path
       id="path2"
       style="fill:#99c1f1;fill-opacity:1;stroke:none;stroke-width:1.07444;stroke-linecap:round;stroke-linejoin:round;stroke-dasharray:none;stroke-opacity:1;paint-order:stroke fill markers"
       d="M 8,2 A 6,6 0 0 0 2,8 6,6 0 0 0 8,14 6,6 0 0 0 14,8 6,6 0 0 0 8,2 Z M 8,3 A 5,5 0 0 1 13,8 5,5 0 0 1 8,13 5,5 0 0 1 3,8 5,5 0 0 1 8,3 Z" /><rect
       style="fill:#99c1f1;fill-opacity:1;stroke:none;stroke-width:1.01044;stroke-linecap:round;stroke-linejoin:round;stroke-dasharray:none;stroke-opacity:1;paint-order:stroke fill markers"
       id="rect2"
       width="3"
       height="0.97943658"
       x="2"
       y="7.5102816"
       rx="0.60993755"
       ry="0.59739512" /><rect
       style="fill:#99c1f1;fill-opacity:1;stroke:none;stroke-width:1.01044;stroke-linecap:round;stroke-linejoin:round;stroke-dasharray:none;stroke-opacity:1;paint-order:stroke fill markers"
       id="rect2-61"
       width="3"
       height="0.97943658"
       x="11"
       y="7.5102816"
       rx="0.60993755"
       ry="0.59739512" /><rect
       style="fill:#99c1f1;fill-opacity:1;stroke:none;stroke-width:1.01044;stroke-linecap:round;stroke-linejoin:round;stroke-dasharray:none;stroke-opacity:1;paint-order:stroke fill markers"
       id="rect2-6"
       width="3"
       height="0.97943658"
       x="2"
       y="-8.4897184"
       rx="0.60993755"
       ry="0.59739512"
       transform="rotate(90)" /><rect
       style="fill:#99c1f1;fill-opacity:1;stroke:none;stroke-width:1.01044;stroke-linecap:round;stroke-linejoin:round;stroke-dasharray:none;stroke-opacity:1;paint-order:stroke fill markers"
       id="rect2-6-2"
       width="3"
       height="0.97943658"
       x="11"
       y="-8.4897184"
       rx="0.60993755"
       ry="0.59739512"
       transform="rotate(90)" /><g
       id="g4"
       transform="matrix(1,1,-1,1,8,-7.9999999)"><path
         id="path3"
         style="fill:#99c1f1;fill-opacity:1;stroke:none;stroke-width:1;stroke-linecap:round;stroke-linejoin:round;stroke-dasharray:none;stroke-opacity:1;paint-order:stroke fill markers"
         inkscape:transform-center-y="-0.33333334"
         d="M 7.9999996,6.4647305 7.3352085,7.6161826 6.6704173,8.7676346 h 0.6647912 a 0.66479123,0.57572594 0 0 1 0.6647911,-0.575726 0.66479123,0.57572594 0 0 1 0.6647912,0.575726 H 9.3295819 L 8.6647908,7.6161826 Z"
         transform="matrix(0.75211591,0,0,0.86846867,1.983073,0.38558407)" /><path
         id="path3-8"
         style="fill:#99c1f1;fill-opacity:1;stroke:none;stroke-width:1;stroke-linecap:round;stroke-linejoin:round;stroke-dasharray:none;stroke-opacity:1;paint-order:stroke fill markers"
         inkscape:transform-center-y="0.33333359"
         d="M 9.3295819,8.7676346 8.6647908,7.6161826 7.9999996,6.4647306 7.3352085,7.6161826 6.6704173,8.7676346 h 0.6647912 a 0.66479123,0.57572594 0 0 1 0.6647911,-0.575726 0.66479123,0.57572594 0 0 1 0.6647912,0.575726 z"
         transform="matrix(-0.75211591,0,0,-0.86846867,14.016927,15.614416)" /></g></g></svg>
